<svg xmlns="http://www.w3.org/2000/svg" width="48" height="48"><defs><linearGradient id="a" x1="19.639" x2="28.361" y1="3.481" y2="44.519" gradientUnits="userSpaceOnUse"><stop offset="0" stop-color="#636363"/><stop offset="1" stop-color="#444"/></linearGradient><linearGradient id="b" x1="13" x2="35" y1="30.684" y2="30.684" gradientUnits="userSpaceOnUse"><stop offset="0" stop-color="#ff9c0f"/><stop offset=".813" stop-color="#d67e00"/></linearGradient></defs><g data-name="Слой 2"><rect width="36" height="36" x="6" y="6" fill="url(#a)" rx="2"/><path fill="#1d1d1b" d="M14 39a2 2 0 01-2-2v-5.9a2.5 2.5 0 011.4-2.275L19.131 27 13.4 25.175a1.993 1.993 0 01-1.4-1.906v-6.538a1.993 1.993 0 011.4-1.906l20-6.725A2 2 0 0136 10v6.265a1.993 1.993 0 01-1.4 1.906L28.869 20l5.731 1.825a1.993 1.993 0 011.4 1.906v6.538a1.993 1.993 0 01-1.4 1.906l-20 6.732A2 2 0 0114 39zm20-29l-20 6.731v6.538L25.727 27 14 31.1V37l20-6.732v-6.537L22.273 20 34 16.269z" opacity=".05"/><path d="M14 38.5a1.5 1.5 0 01-1.5-1.5v-5.9a1.494 1.494 0 011.046-1.43L20.779 27l-7.233-2.3a1.493 1.493 0 01-1.046-1.431v-6.538a1.493 1.493 0 011.046-1.431l20-6.728A1.5 1.5 0 0135.5 10v6.265a1.493 1.493 0 01-1.046 1.435L27.221 20l7.233 2.3a1.493 1.493 0 011.046 1.431v6.538a1.493 1.493 0 01-1.046 1.431l-20 6.732A1.486 1.486 0 0114 38.5zM33.7 9.051l.152.476-20 6.728a.5.5 0 00-.349.476v6.538a.5.5 0 00.349.476L24.078 27l-10.229 3.623a.5.5 0 00-.349.477V37a.5.5 0 00.205.4.489.489 0 00.446.073l20-6.732a.5.5 0 00.349-.476v-6.534a.5.5 0 00-.349-.476L23.922 20l10.229-3.255a.5.5 0 00.349-.476V10a.5.5 0 00-.651-.477z" opacity=".07"/><path fill="url(#b)" d="M34.3 31.222l-20 6.732A1 1 0 0113 37v-5.9a1 1 0 01.7-.952l20-6.732a1 1 0 011.3.953v5.9a1 1 0 01-.7.953z"/><path fill="#ff9c0f" d="M33.7 9.051l-20 6.727a1 1 0 00-.7.953v6.538a1 1 0 00.7.953l21.061 6.7a1.162 1.162 0 00.216-.423 2.867 2.867 0 00.023-.537v-6.231a1 1 0 00-.7-.953L25.571 20l8.729-2.778a1 1 0 00.7-.953V10a1 1 0 00-1.3-.949z"/></g></svg>