<svg width="32" height="32" viewBox="0 0 32 32" fill="none" xmlns="http://www.w3.org/2000/svg">
<path d="M14.4752 0.0446844C10.7073 0.437689 7.33249 2.02326 4.67598 4.67942C2.12791 7.22718 0.623465 10.317 0.0813215 14.0302C-0.0271072 14.7756 -0.0271072 17.2285 0.0813215 17.9738C0.609911 21.687 2.12791 24.7904 4.67598 27.3246C7.2105 29.8588 10.3278 31.3902 14.028 31.9187C14.7598 32.0271 17.2266 32.0271 17.972 31.9187C21.0352 31.485 23.7865 30.3196 26.05 28.4765C29.2757 25.8746 31.3088 22.2291 31.9187 17.9738C32.0271 17.2285 32.0271 14.7756 31.9187 14.0302C31.3901 10.3306 29.8721 7.21363 27.324 4.67942C24.8437 2.19943 21.8213 0.681622 18.2567 0.139547C17.4706 0.0175806 15.2749 -0.0501787 14.4752 0.0446844ZM18.4464 9.36837C18.4464 9.42258 16.0339 17.6486 15.0309 21.023C15.0038 21.1178 14.9089 21.1314 14.1906 21.1314C13.7433 21.1314 13.3774 21.1178 13.3774 21.0907C13.3774 21.023 16.7522 9.5852 16.82 9.43613C16.8742 9.30061 16.9013 9.30061 17.6603 9.30061C18.1889 9.30061 18.4464 9.32772 18.4464 9.36837ZM12.1847 12.675C12.1847 13.2442 12.1576 13.5017 12.1033 13.5424C12.0627 13.5695 10.7344 14.1657 9.16222 14.8569C7.59 15.5345 6.28886 16.1172 6.28886 16.1443C6.28886 16.1579 7.60356 16.7541 9.21643 17.4588L12.144 18.7463L12.1576 19.6C12.1576 20.0744 12.1576 20.4538 12.1305 20.4538C12.1033 20.4538 10.3414 19.6407 8.22702 18.6514L4.37781 16.849V16.1308V15.4261L8.19991 13.6508C10.3007 12.675 12.0627 11.8755 12.1033 11.8755C12.1711 11.8619 12.1847 12.0652 12.1847 12.675ZM23.2986 13.583C25.291 14.5045 26.9987 15.2905 27.0801 15.3176C27.2156 15.3854 27.2291 15.399 27.202 16.1308L27.1885 16.8761L23.9356 18.3668C22.1465 19.1935 20.3981 19.9795 20.0729 20.1286L19.4629 20.4131V19.5594V18.7056L22.4312 17.4317C24.0712 16.727 25.3994 16.1443 25.3994 16.1172C25.3994 16.1037 24.0576 15.5074 22.4312 14.8027L19.4629 13.5288V12.6886C19.4629 11.9161 19.4629 11.8484 19.5714 11.8755C19.6256 11.9026 21.3062 12.675 23.2986 13.583Z" fill="black"/>
</svg>
